<svg xmlns="http://www.w3.org/2000/svg" width="56.996" height="70" viewBox="0 0 56.996 70">
  <g id="imgApple" transform="translate(-1.282)">
    <g id="组_115" data-name="组 115" transform="translate(1.282)">
      <path id="路径_195" data-name="路径 195" d="M48.885,23.641c-.091-8.871,7.232-13.116,7.557-13.329a16.338,16.338,0,0,0-12.8-6.928C38.2,2.826,33.011,6.59,30.241,6.59S23.212,3.46,18.693,3.542a17.146,17.146,0,0,0-14.48,8.774C-1.959,23.027,2.631,38.892,8.646,47.59c2.942,4.25,6.451,9.023,11.051,8.855,4.433-.178,6.106-2.871,11.467-2.871s6.867,2.871,11.554,2.784c4.773-.091,7.79-4.336,10.707-8.6a38.952,38.952,0,0,0,4.854-9.956A15.489,15.489,0,0,1,48.885,23.641Z" transform="translate(-1.282 13.55)" fill="#3e7bfa"/>
      <path id="路径_196" data-name="路径 196" d="M17.334,11.178A15.423,15.423,0,0,0,20.976,0,15.669,15.669,0,0,0,10.665,5.3C8.4,7.922,6.425,12.106,6.952,16.128,10.878,16.438,14.895,14.13,17.334,11.178Z" transform="translate(21.454)" fill="#3e7bfa"/>
    </g>
  </g>
</svg>
