<svg xmlns="http://www.w3.org/2000/svg" width="51.293" height="51.147" viewBox="0 0 51.293 51.147">
  <g id="imgIcon5" transform="translate(0.647 0.5)">
    <path id="路径_175" data-name="路径 175" d="M50,33.838A16.2,16.2,0,0,0,38.165,18.264,19.091,19.091,0,1,0,2.647,28.8L.07,38.113l9.317-2.577a19.021,19.021,0,0,0,8.876,2.628,16.167,16.167,0,0,0,23.8,9.589l7.868,2.176-2.176-7.868A16.1,16.1,0,0,0,50,33.838ZM9.85,32.368,4.272,33.912l1.543-5.578-.352-.55A16.157,16.157,0,1,1,10.4,32.72ZM45.728,45.728l-4.139-1.145-.553.36a13.237,13.237,0,0,1-19.743-6.887A19.128,19.128,0,0,0,38.056,21.293a13.238,13.238,0,0,1,6.886,19.744l-.36.553Zm0,0" fill="#fff" stroke="#fff" stroke-width="1"/>
    <path id="路径_176" data-name="路径 176" d="M180.5,271h2.93v2.93H180.5Zm0,0" transform="translate(-162.873 -244.535)" fill="#fff" stroke="#fff" stroke-width="1"/>
    <path id="路径_177" data-name="路径 177" d="M144.289,95.859a2.9,2.9,0,0,1-.954,2.163l-3.441,3.149v3.575h2.93v-2.285l2.489-2.278a5.859,5.859,0,1,0-9.813-4.324h2.93a2.93,2.93,0,0,1,5.859,0Zm0,0" transform="translate(-122.268 -81.211)" fill="#fff" stroke="#fff" stroke-width="1"/>
  </g>
</svg>
