<svg xmlns="http://www.w3.org/2000/svg" width="59" height="51" viewBox="0 0 59 51">
  <g id="imgIcon3" transform="translate(0.5 0.5)">
    <g id="组_81" data-name="组 81" transform="translate(0 0)">
      <g id="组_80" data-name="组 80">
        <path id="路径_184" data-name="路径 184" d="M55.1,57h-.967V36.808A4.826,4.826,0,0,0,49.3,32H8.7a4.826,4.826,0,0,0-4.833,4.808V51.231H2.9A2.892,2.892,0,0,0,0,54.115v25A2.892,2.892,0,0,0,2.9,82H39.633a.964.964,0,0,0,.967-.962,4.826,4.826,0,0,0-4.833-4.808h-2.9V70.462h11.6v8.654A2.892,2.892,0,0,0,47.367,82H55.1A2.892,2.892,0,0,0,58,79.115V59.885A2.892,2.892,0,0,0,55.1,57ZM21.267,79.115a.964.964,0,0,1-.967.962H2.9a.964.964,0,0,1-.967-.962v-.962H21.267Zm0-2.885H1.933V54.115a.964.964,0,0,1,.967-.962H20.3a.964.964,0,0,1,.967.962Zm14.5,1.923A2.9,2.9,0,0,1,38.5,80.077H23.022a2.838,2.838,0,0,0,.178-.962v-.962ZM23.2,76.231V70.462h1.933v5.769Zm3.867,0V70.462h3.867v5.769Zm17.4-7.692H23.2V62.769H44.467Zm0-8.654v.962H23.2V54.115a2.838,2.838,0,0,0-.331-1.309c.014-.013.034-.017.047-.032l9.57-9.519a.958.958,0,0,0-.024-1.36.971.971,0,0,0-1.343,0l-9.57,9.519c-.023.024-.033.055-.053.08a2.876,2.876,0,0,0-1.2-.264H5.8V36.808a2.892,2.892,0,0,1,2.9-2.885H49.3a2.892,2.892,0,0,1,2.9,2.885V57H47.367A2.892,2.892,0,0,0,44.467,59.885Zm11.6,19.231a.964.964,0,0,1-.967.962H47.367a.964.964,0,0,1-.967-.962v-.962h9.667Zm0-2.885H46.4V59.885a.964.964,0,0,1,.967-.962H55.1a.964.964,0,0,1,.967.962Z" transform="translate(0 -32)" fill="#fff" stroke="#fff" stroke-width="1"/>
      </g>
    </g>
    <g id="组_83" data-name="组 83" transform="translate(5.757 30.653)">
      <g id="组_82" data-name="组 82">
        <path id="路径_185" data-name="路径 185" d="M53.634,287.315a.962.962,0,0,0-1.36,0L48.2,291.394a.962.962,0,1,0,1.336,1.383l.024-.024,4.079-4.079C53.805,288.377,53.46,287.812,53.634,287.315Z" transform="translate(-47.902 -287.034)" fill="#fff" stroke="#fff" stroke-width="1"/>
      </g>
    </g>
    <g id="组_85" data-name="组 85" transform="translate(11.595 30.665)">
      <g id="组_84" data-name="组 84">
        <path id="路径_186" data-name="路径 186" d="M101.61,287.4a.962.962,0,0,0-1.336,0L96.2,291.479a.962.962,0,0,0,1.336,1.383l.024-.024,4.079-4.079A.962.962,0,0,0,101.61,287.4Z" transform="translate(-95.902 -287.131)" fill="#fff" stroke="#fff" stroke-width="1"/>
      </g>
    </g>
    <g id="组_87" data-name="组 87" transform="translate(27.187 9.627)">
      <g id="组_86" data-name="组 86">
        <path id="路径_187" data-name="路径 187" d="M235.85,112.368a.962.962,0,0,0-1.336,0L225,121.888a.962.962,0,0,0,1.336,1.383l.024-.024,9.519-9.519A.961.961,0,0,0,235.85,112.368Z" transform="translate(-224.702 -112.098)" fill="#fff" stroke="#fff" stroke-width="1"/>
      </g>
    </g>
    <g id="组_89" data-name="组 89" transform="translate(48.936 33.268)">
      <g id="组_88" data-name="组 88">
        <path id="路径_188" data-name="路径 188" d="M408.939,309.056a.961.961,0,0,0-1.336,0l-2.719,2.719a.962.962,0,0,0,1.336,1.383l.024-.024,2.719-2.719A.962.962,0,0,0,408.939,309.056Z" transform="translate(-404.59 -308.786)" fill="#fff" stroke="#fff" stroke-width="1"/>
      </g>
    </g>
    <g id="组_91" data-name="组 91" transform="translate(28.053 32.692)">
      <g id="组_90" data-name="组 90">
        <path id="路径_189" data-name="路径 189" d="M233.086,304h-.01a.966.966,0,1,0,.01,0Z" transform="translate(-232.12 -304)" fill="#fff" stroke="#fff" stroke-width="1"/>
      </g>
    </g>
    <g id="组_93" data-name="组 93" transform="translate(26.115 3.846)">
      <g id="组_92" data-name="组 92">
        <path id="路径_190" data-name="路径 190" d="M220.808,64h-3.846a.962.962,0,1,0,0,1.923h3.846a.962.962,0,0,0,0-1.923Z" transform="translate(-216 -64)" fill="#fff" stroke="#fff" stroke-width="1"/>
      </g>
    </g>
  </g>
</svg>
