<svg xmlns="http://www.w3.org/2000/svg" width="51.066" height="51.165" viewBox="0 0 51.066 51.165">
  <g id="imgIcon6" transform="translate(0.566 0.602)">
    <path id="路径_170" data-name="路径 170" d="M49.868,23.343a.8.8,0,0,0,.049-.244.836.836,0,0,0-.042-.259l-.064-.182A24.979,24.979,0,0,0,40.727,5.845c-.367-.3-.751-.57-1.134-.847-.019-.016-.029-.038-.05-.053s-.037-.013-.055-.024A25.059,25.059,0,0,0,24.925.221c-.215,0-.431,0-.592.017a24.426,24.426,0,0,0-8.152,1.57A7.5,7.5,0,0,0,4.069,7.736,7.937,7.937,0,0,0,4.724,10.5,25.106,25.106,0,0,0,2.485,14.2c-.013.02-.02.042-.031.062a25.031,25.031,0,0,0,44.5,22.9,24.676,24.676,0,0,0,2.96-10.662c.026-.4.035-.813.035-1.224,0-.647-.033-1.288-.083-1.927Zm-2.424-4.285c-.106-.094-.2-.2-.314-.29a10.99,10.99,0,0,0-3.642-1.821,7.834,7.834,0,0,0-3.658-.038,7.206,7.206,0,0,1-3.116.015c-1.994-.436-3.57-.78-4.406-2.116-1.2-1.921-.636-4.62.627-5.57a1.9,1.9,0,0,1,1.427-.3A5.329,5.329,0,0,0,36.948,8.5,6.7,6.7,0,0,0,39.2,6.781c.158.122.324.232.479.358a23.349,23.349,0,0,1,7.765,11.919ZM11.577,1.891a5.851,5.851,0,0,1,5.84,5.845c0,2.5-3.748,8.216-5.84,11.114a52.483,52.483,0,0,1-5.146-8.559,6.964,6.964,0,0,1-.693-2.555,5.849,5.849,0,0,1,5.84-5.845ZM1.567,25.27a23.662,23.662,0,0,1,.468-4.633c.089,1.161.24,2.193.376,3.089.517,3.423,1.005,6.651,3.526,9.6,1.054,1.243,2.82,3.322,5.549,3.63s6.148-1.264,7.135-1.754L19,35.013a3.667,3.667,0,0,1,1.743-.559,4.114,4.114,0,0,1,2.73,1.4c1.424,1.577,1.785,4.211.773,5.636a2.562,2.562,0,0,1-1.281.891,3.9,3.9,0,0,0-2.092,1.67,5.16,5.16,0,0,0-.36,4.175A23.41,23.41,0,0,1,1.567,25.27ZM24.925,48.649a23.51,23.51,0,0,1-2.413-.124,2.957,2.957,0,0,1-.19-.274,3.556,3.556,0,0,1-.016-3.35,2.3,2.3,0,0,1,1.31-.986A4.157,4.157,0,0,0,25.6,42.453c1.451-2.042,1.04-5.58-.892-7.72a5.727,5.727,0,0,0-3.952-1.948h-.037a5.053,5.053,0,0,0-2.485.741l-.356.18c-1.823.9-4.416,1.789-6.211,1.586-2.072-.232-3.51-1.929-4.465-3.052-2.213-2.588-2.646-5.453-3.146-8.767A24.029,24.029,0,0,1,4,14.885a23.424,23.424,0,0,1,1.512-2.622c.028.055.058.112.084.167.053.106.108.211.167.317l.251.475q.086.16.175.321.133.238.268.476c.06.105.12.211.181.316q.139.238.279.474c.062.1.123.206.185.309.1.167.2.323.3.484.057.091.112.184.167.274.123.2.246.39.369.585l.1.152q.229.355.453.693c.057.084.112.167.167.251.092.138.183.276.273.407l.2.29c.072.106.144.212.214.313l.2.288c.062.09.124.177.183.261s.126.18.188.266l.153.215.167.23.136.189.133.183.108.147.1.139.061.084.147.2a.833.833,0,0,0,1.334,0c.7-.929,6.842-9.171,6.842-13.03,0-.244-.015-.486-.038-.727-.007-.074-.019-.148-.029-.223-.022-.167-.047-.334-.083-.5-.016-.084-.033-.162-.052-.242q-.058-.251-.134-.5c-.021-.067-.038-.135-.06-.2-.075-.224-.159-.445-.255-.66-.018-.041-.04-.084-.059-.121-.084-.174-.167-.346-.263-.514-.042-.075-.088-.148-.132-.221q-.12-.2-.251-.389c-.052-.074-.1-.148-.158-.221-.029-.037-.053-.076-.084-.112a22.764,22.764,0,0,1,5.361-1.112,9.637,9.637,0,0,0-1.24,6.763,8.708,8.708,0,0,0,2,3.653,4.1,4.1,0,0,1,1.314,2.819c-.072,2.421-2.8,4.437-3.838,5.2a14.36,14.36,0,0,1-4.479,2.166c-1.515.5-2.822.923-3.322,2.416a4.762,4.762,0,0,0,2.02,5.148,4.211,4.211,0,0,0,3.324.294,10.252,10.252,0,0,1,3.682-.176c1.585.225,2.952.417,3.6,1.326a3,3,0,0,1,.29,2.133,10.124,10.124,0,0,0,.433,4.327c.38,1.142.955,2.867,2.336,3.066a1.726,1.726,0,0,0,.271.022c.977,0,1.575-.864,2.2-1.772.278-.4.584-.835.951-1.27,1.717,2.776,3.461,5.093,3.542,5.2a.834.834,0,0,0,1.335,0A69.421,69.421,0,0,0,42.21,35.7a10.957,10.957,0,0,1,2.9,1.322A23.317,23.317,0,0,1,24.925,48.649ZM40.5,25.927a5.833,5.833,0,0,1,1.948,4.353,9.96,9.96,0,0,1-1.4,4.052A62.242,62.242,0,0,1,36.6,41.391c-.785-1.095-2.136-3.038-3.344-5.08a30.883,30.883,0,0,1-1.8-3.476,6.964,6.964,0,0,1-.693-2.555,5.849,5.849,0,0,1,5.84-5.845q.271,0,.537.024A5.785,5.785,0,0,1,40.5,25.927Zm7.758.481A23.019,23.019,0,0,1,45.9,35.547a12.683,12.683,0,0,0-2.93-1.366,9.9,9.9,0,0,0,1.137-3.9,7.547,7.547,0,0,0-4.2-6.748l-.053-.023c-.187-.09-.376-.174-.569-.25-.133-.052-.27-.092-.407-.135-.084-.025-.158-.057-.24-.084-.215-.061-.434-.111-.654-.152h-.011c-.133-.025-.268-.038-.4-.056A7.458,7.458,0,0,0,29.1,30.28a8.6,8.6,0,0,0,.826,3.209A30.816,30.816,0,0,0,31.5,36.6a15.389,15.389,0,0,0-1.429,1.824,4.346,4.346,0,0,1-.858,1.051c-.167-.025-.476-.382-1-1.944a8.573,8.573,0,0,1-.351-3.679,4.469,4.469,0,0,0-.6-3.222c-1.065-1.491-2.925-1.754-4.734-2.01a11.744,11.744,0,0,0-4.22.19c-1.067.2-1.563.28-2.129-.073a3.166,3.166,0,0,1-1.318-3.2c.223-.668.89-.909,2.253-1.357a16.008,16.008,0,0,0,4.956-2.41c1.215-.892,4.422-3.261,4.518-6.492a5.617,5.617,0,0,0-1.684-3.913,7.223,7.223,0,0,1-1.675-2.985c-.443-1.86.106-4.042,1.6-6.487h.1A23.4,23.4,0,0,1,37.835,5.8,5.012,5.012,0,0,1,36.26,6.975a3.732,3.732,0,0,1-1.848.289,3.5,3.5,0,0,0-2.479.638c-1.892,1.425-2.739,5.06-1.039,7.789,1.21,1.935,3.277,2.385,5.535,2.878a8.727,8.727,0,0,0,3.684-.016,6.287,6.287,0,0,1,2.961.009A9.292,9.292,0,0,1,46.1,20.081a6.837,6.837,0,0,1,2.071,2.961c.068.738.111,1.477.111,2.228,0,.373-.007.751-.033,1.138Zm0,0" transform="translate(0.048 -0.22)" fill="#fff" stroke="#fff" stroke-width="1"/>
    <path id="路径_171" data-name="路径 171" d="M82.778,38.91a3.34,3.34,0,1,0-3.34-3.34A3.34,3.34,0,0,0,82.778,38.91Zm0-5.01a1.67,1.67,0,1,1-1.67,1.67A1.67,1.67,0,0,1,82.778,33.9Zm0,0" transform="translate(-71.15 -28.89)" fill="#fff" stroke="#fff" stroke-width="1"/>
    <path id="路径_172" data-name="路径 172" d="M319.438,251.57a3.34,3.34,0,1,0,3.34-3.34A3.34,3.34,0,0,0,319.438,251.57Zm5.01,0a1.67,1.67,0,1,1-1.67-1.67A1.67,1.67,0,0,1,324.448,251.57Zm0,0" transform="translate(-286.127 -222.345)" fill="#fff" stroke="#fff" stroke-width="1"/>
  </g>
</svg>
