<svg xmlns="http://www.w3.org/2000/svg" width="60" height="50" viewBox="0 0 60 50">
  <path id="路径_169" data-name="路径 169" d="M59.591,57.7a56.223,56.223,0,0,0-12.96-11.986L55.086,37.5a2.039,2.039,0,0,0,.053-2.943,2.188,2.188,0,0,0-3.03-.051l-.053.051-9.238,8.964A28.349,28.349,0,0,0,30,40.2C13.715,40.2.946,56.987.41,57.7a2.033,2.033,0,0,0,0,2.447A56.223,56.223,0,0,0,13.37,72.136L4.914,80.348a2.039,2.039,0,0,0-.053,2.943,2.188,2.188,0,0,0,3.03.051l.053-.051,9.238-8.964A28.349,28.349,0,0,0,30,77.657c16.286,0,29.055-16.791,29.59-17.507A2.033,2.033,0,0,0,59.591,57.7ZM16.485,69.116A52.847,52.847,0,0,1,4.873,58.926C8.028,55.216,18.257,44.358,30,44.358a23.228,23.228,0,0,1,9.619,2.289L35.9,50.26a10.893,10.893,0,0,0-14.828,2.909,10.141,10.141,0,0,0,0,11.493Zm19.3-12.864a6,6,0,0,1,.643,2.674A6.338,6.338,0,0,1,30,65.17a6.478,6.478,0,0,1-2.754-.624ZM24.215,61.6a6,6,0,0,1-.643-2.674A6.338,6.338,0,0,1,30,52.683a6.478,6.478,0,0,1,2.754.624ZM30,73.495a23.228,23.228,0,0,1-9.619-2.289l3.72-3.613a10.893,10.893,0,0,0,14.828-2.909,10.141,10.141,0,0,0,0-11.493l4.586-4.454a52.85,52.85,0,0,1,11.612,10.19C51.973,62.637,41.743,73.495,30,73.495Z" transform="translate(0 -33.926)" fill="#fff"/>
</svg>
