<svg xmlns="http://www.w3.org/2000/svg" width="37" height="51" viewBox="0 0 37 51">
  <g id="imgIcon4" transform="translate(0.5 0.5)">
    <path id="路径_173" data-name="路径 173" d="M173.379,301.2a1.465,1.465,0,0,0,1.465-1.465v-6.068a1.465,1.465,0,0,0-2.93,0v6.068A1.465,1.465,0,0,0,173.379,301.2Zm0,0" transform="translate(-155.379 -263.664)" fill="#fff" stroke="#fff" stroke-width="1"/>
    <path id="路径_174" data-name="路径 174" d="M34.555,16.067H27.718V8.932C27.718,4.006,23.358,0,18,0S8.281,4.006,8.281,8.932v7.136H1.444A1.455,1.455,0,0,0,0,17.532V36.266A13.655,13.655,0,0,0,13.543,50h8.913A13.655,13.655,0,0,0,36,36.266V17.532a1.455,1.455,0,0,0-1.445-1.465ZM11.17,8.932c0-3.31,3.064-6,6.829-6s6.83,2.692,6.83,6v7.136H11.17ZM33.11,36.266a10.742,10.742,0,0,1-10.654,10.8H13.543a10.742,10.742,0,0,1-10.654-10.8V19H33.11Zm0,0" transform="translate(0 0)" fill="#fff" stroke="#fff" stroke-width="1"/>
  </g>
</svg>
