<svg id="imgIcon2" xmlns="http://www.w3.org/2000/svg" width="50" height="50" viewBox="0 0 50 50">
  <path id="路径_181" data-name="路径 181" d="M25,50A25,25,0,1,0,0,25,25.054,25.054,0,0,0,25,50ZM10.658,41.761a19.25,19.25,0,0,1,28.683,0,22.025,22.025,0,0,1-28.683,0Zm-1.8-18.226a16.139,16.139,0,0,1,3.7-8.91l1.991,1.991,2.072-2.072-1.991-1.991a16.139,16.139,0,0,1,8.91-3.7v2.863h2.93V8.856a16.139,16.139,0,0,1,8.91,3.7l-1.991,1.991,2.072,2.072,1.991-1.991a16.142,16.142,0,0,1,3.7,8.91H38.281v2.929h2.862A16.32,16.32,0,0,1,37,35.945a22.194,22.194,0,0,0-24,0,16.318,16.318,0,0,1-4.144-9.48h2.862v-2.93ZM25,2.93A22.058,22.058,0,0,1,41.438,39.71,21.93,21.93,0,0,0,39.361,37.7,19.153,19.153,0,1,0,5.859,25a19.283,19.283,0,0,0,4.779,12.7A21.928,21.928,0,0,0,8.562,39.71,22.058,22.058,0,0,1,25,2.93Zm0,0" fill="#fff"/>
  <path id="路径_182" data-name="路径 182" d="M211,392h8.789v2.93H211Zm0,0" transform="translate(-190.395 -353.719)" fill="#fff"/>
  <path id="路径_183" data-name="路径 183" d="M170.841,176.883a4.395,4.395,0,1,0,6.039-6.039l-.076-.046-11.02-5.009,5.01,11.019Zm4.576-3.5a1.465,1.465,0,1,1-2.035,2.035l-1.7-3.732Zm0,0" transform="translate(-149.595 -149.598)" fill="#fff"/>
</svg>
