<svg xmlns="http://www.w3.org/2000/svg" width="133.419" height="127.234" viewBox="0 0 133.419 127.234">
  <g id="imgLeaf5" transform="translate(76.743 9.05) rotate(45)">
    <path id="路径_20" data-name="路径 20" d="M25.221,34.083c1.932-10.044,15.23-18.717,25.206-16.462S67.91,28.9,70.482,38.8s.873,20.47-2.455,30.141C65.292,76.889,61.2,84.394,59.3,92.58c-5.261,22.708.416,22.018-25.459,4.356C24.506,90.564,12.731,88.464,3.47,81.984S-13.444,65.3-13.111,54a24.7,24.7,0,0,1,12.3-20.38C6.408,29.538,17.993,30.014,25.221,34.083Z" transform="translate(0 -14.52)" fill="#42467c"/>
    <path id="路径_21" data-name="路径 21" d="M11.624,55.345a.735.735,0,0,0,1.016-.226,187.035,187.035,0,0,1,25.4-31.656q1.709,4.524,3.451,9.046c-.018.021-.041.033-.057.055-3.248,4.658-6.689,9.423-10.016,14.032s-6.775,9.383-10.03,14.052a.736.736,0,1,0,1.208.842c3.249-4.658,6.689-9.423,10.017-14.032,3.156-4.37,6.408-8.879,9.51-13.312q1.625,4.2,3.255,8.378A59.255,59.255,0,0,0,29.986,67.987a.736.736,0,1,0,1.412.42A57.792,57.792,0,0,1,45.959,44.024q1.378,3.523,2.744,7.008c.449,1.144.9,2.307,1.354,3.459a.723.723,0,0,0-.184.2,77.162,77.162,0,0,0-7.466,18.4.737.737,0,0,0,1.425.374,75.641,75.641,0,0,1,6.9-17.267q2.442,6.238,4.889,12.569a21.451,21.451,0,0,0-4.876,10.1.736.736,0,1,0,1.448.27,19.991,19.991,0,0,1,4.033-8.795c1.523,3.958,3.038,7.923,4.515,11.873a.737.737,0,0,0,1.38-.516Q60.529,77.458,58.9,73.2a34.2,34.2,0,0,1,6.739,4.057.736.736,0,1,0,.9-1.164,35.692,35.692,0,0,0-8.385-4.826c-1.717-4.471-3.448-8.936-5.176-13.356a57.756,57.756,0,0,1,15,10.04.736.736,0,1,0,1-1.08A59.218,59.218,0,0,0,52.208,55.945c-.714-1.823-1.428-3.648-2.135-5.452-.772-1.969-1.552-3.961-2.331-5.953a74.765,74.765,0,0,1,22.13,13.31.736.736,0,0,0,.966-1.112,76.281,76.281,0,0,0-23.824-14.06q-1.49-3.813-2.982-7.661A123.092,123.092,0,0,1,63.716,42.1a.737.737,0,0,0,.616-1.339,124.574,124.574,0,0,0-20.954-7.445q-1.918-4.964-3.8-9.937A242.934,242.934,0,0,1,79.317,35.656a.736.736,0,1,0,.554-1.364A244.352,244.352,0,0,0,38.958,21.734c-.133-.353-.268-.705-.4-1.058A131.439,131.439,0,0,0,65.37,11.554a.737.737,0,0,0-.447-1.392.747.747,0,0,0-.176.056,129.923,129.923,0,0,1-26.714,9.067c-.629-1.681-1.279-3.358-1.928-5.035C32.93,6.057,29.648-2.416,29.064-11.263a.737.737,0,0,0-.784-.687.727.727,0,0,0-.088.012.736.736,0,0,0-.6.772c.6,9.072,3.923,17.652,7.137,25.949.636,1.641,1.27,3.282,1.887,4.928-3.692,1.172-7.608,2.442-11.417,3.678-4.2,1.364-8.548,2.775-12.563,4.043a.737.737,0,0,0,.444,1.4c4.02-1.27,8.369-2.682,12.574-4.047,3.833-1.243,7.774-2.521,11.484-3.7.107.284.216.569.322.854A188.515,188.515,0,0,0,11.4,54.328.737.737,0,0,0,11.624,55.345Z" transform="translate(-12.13 0)" fill="#686db3"/>
  </g>
</svg>
