<svg xmlns="http://www.w3.org/2000/svg" xmlns:xlink="http://www.w3.org/1999/xlink" width="120.369" height="151.882" viewBox="0 0 120.369 151.882">
  <defs>
    <linearGradient id="linear-gradient" x1="-0.361" y1="1.051" x2="1.062" y2="0.304" gradientUnits="objectBoundingBox">
      <stop offset="0" stop-color="#3e7bfa"/>
      <stop offset="1" stop-color="#81a6f5"/>
    </linearGradient>
  </defs>
  <g id="imgLeaf3" transform="matrix(-0.407, 0.914, -0.914, -0.407, 120.369, 33.293)">
    <path id="路径_36" data-name="路径 36" d="M106.662,20.369c-5.579,6.537-8.485,12.243-8.952,19.684S98.3,55.009,97.33,62.4s-4.591,15.091-11.422,18.08c-7.618,3.33-16.272-.134-24.239-2.517-20.123-6.02-41.1-.588-61.669,3.415,14.906-13.6,27.7-30.7,32.071-50.358,1.2-5.423,1.834-11,3.631-16.255s4.978-10.332,9.9-12.9C51.932-1.441,59.777.056,66.185,3.2s11.984,7.772,18.326,11.043S99.375,20.786,106.662,20.369Z" transform="translate(0 0)" fill="url(#linear-gradient)"/>
    <path id="路径_37" data-name="路径 37" d="M22.366,6.771a1.438,1.438,0,0,0,1.351,1.516,52.755,52.755,0,0,1,35.92,17.5c-5.237,3-10.353,5.934-15.39,8.825A41.177,41.177,0,0,0,19.319,19.59a1.436,1.436,0,1,0-.506,2.826A38.307,38.307,0,0,1,41.735,36.061l-.228.13c-4.969,2.854-10.005,5.746-15.152,8.693a29.555,29.555,0,0,0-14.814-6.539,1.436,1.436,0,0,0-.385,2.846,26.69,26.69,0,0,1,12.518,5.229C16.316,50.629,8.717,54.958.722,59.469A1.45,1.45,0,0,0,.18,61.425a1.433,1.433,0,0,0,1.955.543q5.754-3.247,11.251-6.375l-.4,5.544a1.435,1.435,0,0,0,2.863.208l.517-7.164a1.452,1.452,0,0,0-.017-.275q7.694-4.385,15.02-8.587a26.11,26.11,0,0,1-2.3,16.136,1.436,1.436,0,1,0,2.565,1.291,28.6,28.6,0,0,0,2.377-18.94q4.505-2.588,8.926-5.125,2.177-1.252,4.375-2.513a64.449,64.449,0,0,1-3.576,27.153,1.436,1.436,0,0,0,2.7.977,67.32,67.32,0,0,0,3.618-29.7q7.35-4.22,15-8.589a70.082,70.082,0,0,1-4.169,38.547A1.436,1.436,0,1,0,63.556,65.6c5.4-13.749,6.785-27.575,4.139-41.1,5.19-2.958,10.516-5.983,16.028-9.1C89.74,12,96.153,8.773,102.353,5.646q2.916-1.469,5.795-2.932a1.435,1.435,0,0,0,.64-1.905l-.013-.026a1.439,1.439,0,0,0-1.931-.627q-2.867,1.463-5.784,2.926C94.83,6.224,88.388,9.47,82.31,12.9c-6.976,3.935-13.649,7.733-20.126,11.435a55.673,55.673,0,0,0-38.3-18.917A1.437,1.437,0,0,0,22.366,6.771Z" transform="translate(23.647 6.218)" fill="#fff"/>
  </g>
</svg>
