<svg xmlns="http://www.w3.org/2000/svg" width="148.358" height="133.013" viewBox="0 0 148.358 133.013">
  <g id="imgLeaf" transform="translate(48.929 123.829) rotate(-120)">
    <path id="路径_20" data-name="路径 20" d="M29.444,35.936c2.145-11.15,16.908-20.778,27.983-18.275S76.836,30.186,79.691,41.175,80.66,63.9,76.965,74.636c-3.036,8.821-7.581,17.153-9.686,26.241-5.841,25.209.462,24.443-28.263,4.836C28.651,98.638,15.578,96.307,5.3,89.113S-13.479,70.588-13.11,58.045A27.425,27.425,0,0,1,.543,35.42C8.559,30.89,21.42,31.419,29.444,35.936Z" transform="translate(0 -12.901)" fill="#303359"/>
    <path id="路径_21" data-name="路径 21" d="M11.661,62.758a.816.816,0,0,0,1.128-.251A207.637,207.637,0,0,1,40.984,27.364q1.9,5.023,3.831,10.042c-.02.023-.046.036-.064.061-3.606,5.172-7.426,10.461-11.12,15.577S26.11,63.461,22.5,68.645a.817.817,0,1,0,1.341.935C27.444,64.408,31.264,59.118,34.958,54c3.5-4.852,7.114-9.857,10.557-14.778q1.8,4.668,3.614,9.3A65.781,65.781,0,0,0,32.046,76.792a.818.818,0,0,0,1.567.466A64.158,64.158,0,0,1,49.778,50.189q1.529,3.911,3.046,7.78c.5,1.27,1,2.561,1.5,3.84a.8.8,0,0,0-.2.224,85.661,85.661,0,0,0-8.288,20.432.818.818,0,0,0,1.582.415,83.973,83.973,0,0,1,7.655-19.169q2.711,6.926,5.427,13.954a23.814,23.814,0,0,0-5.413,11.208.817.817,0,1,0,1.607.3,22.193,22.193,0,0,1,4.477-9.763c1.691,4.394,3.373,8.8,5.012,13.181a.818.818,0,0,0,1.532-.572q-1.762-4.714-3.573-9.443a37.963,37.963,0,0,1,7.481,4.5.817.817,0,1,0,1-1.293,39.623,39.623,0,0,0-9.308-5.358c-1.906-4.964-3.828-9.92-5.746-14.827A64.117,64.117,0,0,1,74.221,76.749a.817.817,0,0,0,1.111-1.2A65.742,65.742,0,0,0,56.716,63.423c-.792-2.023-1.585-4.05-2.37-6.052-.857-2.186-1.723-4.4-2.587-6.608A83,83,0,0,1,76.326,65.54.818.818,0,0,0,77.4,64.305,84.683,84.683,0,0,0,50.95,48.7q-1.654-4.233-3.311-8.5a136.651,136.651,0,0,1,21.852,7.864.818.818,0,0,0,.683-1.486A138.3,138.3,0,0,0,46.913,38.3Q44.784,32.794,42.7,27.273A269.693,269.693,0,0,1,86.811,40.9a.817.817,0,1,0,.615-1.514,271.267,271.267,0,0,0-45.42-13.942c-.147-.391-.3-.783-.444-1.174A145.917,145.917,0,0,0,71.327,14.143a.818.818,0,0,0-.5-1.545.829.829,0,0,0-.2.063A144.234,144.234,0,0,1,40.98,22.726c-.7-1.866-1.419-3.728-2.14-5.59-3.524-9.1-7.169-18.5-7.817-28.324a.819.819,0,0,0-.87-.762.806.806,0,0,0-.1.013.817.817,0,0,0-.664.857c.665,10.072,4.355,19.6,7.924,28.807.706,1.821,1.41,3.644,2.094,5.471-4.1,1.3-8.446,2.711-12.674,4.083-4.666,1.514-9.49,3.08-13.947,4.488a.818.818,0,0,0,.493,1.559c4.463-1.41,9.291-2.977,13.959-4.493,4.255-1.38,8.631-2.8,12.749-4.106.118.315.24.632.358.948a209.28,209.28,0,0,0-28.936,35.95A.818.818,0,0,0,11.661,62.758Z" transform="translate(-10.778 0)" fill="#4c518f"/>
  </g>
</svg>
