<svg id="imgLeaf1" xmlns="http://www.w3.org/2000/svg" xmlns:xlink="http://www.w3.org/1999/xlink" width="200.523" height="499.031" viewBox="0 0 200.523 499.031">
  <defs>
    <linearGradient id="linear-gradient" x1="0.5" x2="4.088" y2="1.611" gradientUnits="objectBoundingBox">
      <stop offset="0" stop-color="#3f4376"/>
      <stop offset="1" stop-color="#28293d"/>
    </linearGradient>
    <linearGradient id="linear-gradient-2" x1="1.06" y1="-0.031" x2="-0.073" y2="1.149" gradientUnits="objectBoundingBox">
      <stop offset="0" stop-color="#5e64b6"/>
      <stop offset="1" stop-color="#5358be"/>
    </linearGradient>
  </defs>
  <path id="路径_34" data-name="路径 34" d="M671.963,589.96a113.718,113.718,0,0,1-45.493-23.673c-7.5-6.5-14.261-14.434-16.872-24.014s-.182-21.017,7.8-26.918c4.8-3.549,10.9-4.736,16.363-7.141,32.766-14.406-15.116-44.911-6.5-65.516,6.983-16.693,37.338-12.3,43.253-29.4,6.571-19-26.629-34.944-20-53.925,5.433-15.565,27.376-14.062,34.154-27.6,7.9-15.782-9.648-24.013-14.66-35.766-5.382-12.621,1.694-29.468,13.742-35.353,8-3.911,17.865-4.044,24.685-9.773,14.517-12.2-.543-30.252,9.151-42.2,10.026-12.345,34.235-1.352,40.151,10.673,8.579,17.433-2.2,35.514,18.569,49.051,7.057,4.6,16.036,7.3,20.225,14.614,3.618,6.314,2.417,14.5-1.17,20.831-6.625,11.7-22.056,19.732-22.3,34.812-.169,10.526,8.767,18.606,16.521,25.728s15.643,16.97,12.7,27.079C799.516,401,788.762,405.238,779.578,409s-19.437,10.526-18.869,20.434c.552,9.63,10.809,15.128,17.276,22.285,9.339,10.338,10.874,26.937,3.588,38.812-11.147,18.169-35.217,2.855-43.676,24.713-8.279,21.4,18.371,27.571,18.475,47.211,0,.239,0,.476-.006.714-.461,28.265-34.673,31.3-55.935,30.815A122.808,122.808,0,0,1,671.963,589.96Z" transform="translate(-602.399 -203.268)" fill="url(#linear-gradient)"/>
  <path id="路径_35" data-name="路径 35" d="M762.53,450.022A2.389,2.389,0,1,0,759.8,446.1a68.036,68.036,0,0,1-47.809,11.548q9.214-32.515,15.857-65.658a2.443,2.443,0,0,0,.167-.246,2.32,2.32,0,0,0,.15-1.368q1.418-7.149,2.715-14.319a85.624,85.624,0,0,0,42.9-10.988,2.387,2.387,0,0,0-2.342-4.161,80.847,80.847,0,0,1-39.7,10.356q6.952-39.74,10.112-79.893a103.782,103.782,0,0,0,36.3-23.81,2.389,2.389,0,0,0-3.406-3.35,98.989,98.989,0,0,1-32.529,21.864q1.918-26.908,2.1-53.819a2.388,2.388,0,0,0-4.777-.025q-.175,33.794-3.214,67.629a115.671,115.671,0,0,1-39.294-32.392,2.388,2.388,0,0,0-3.78,2.919,120.443,120.443,0,0,0,42.625,34.6q-3.913,41.275-11.939,82.165a100.668,100.668,0,0,1-40.284-37.15,2.387,2.387,0,1,0-4.078,2.483A105.409,105.409,0,0,0,722.978,392q-3.783,18.767-8.415,37.362a40.887,40.887,0,0,1-18.874-15.524,2.389,2.389,0,0,0-4.008,2.6,45.707,45.707,0,0,0,21.708,17.6q-6.014,23.631-13.343,46.907a110.571,110.571,0,0,1-37.134-47.465,2.388,2.388,0,1,0-4.429,1.789,115.416,115.416,0,0,0,40.006,50.492q-10.6,32.88-23.791,64.808a77.649,77.649,0,0,1-35.233-40.139,2.389,2.389,0,0,0-4.463,1.7,82.47,82.47,0,0,0,37.839,42.86A829.262,829.262,0,0,1,605,683.738a2.388,2.388,0,0,0,.71,3.3,2.363,2.363,0,0,0,.934.354,2.387,2.387,0,0,0,2.367-1.063,835.17,835.17,0,0,0,71.121-136.47,119.786,119.786,0,0,0,55.359-6.316,2.389,2.389,0,0,0-1.637-4.488,114.965,114.965,0,0,1-51.851,6.193q6.849-16.985,13-34.255a2.257,2.257,0,0,0,.315.119l.413.065a59.324,59.324,0,0,0,29.812-3.125,2.389,2.389,0,0,0-1.683-4.471,54.531,54.531,0,0,1-27.292,2.888q7.628-21.892,14.076-44.18A73.059,73.059,0,0,0,762.53,450.022Z" transform="translate(-604.621 -188.391)" fill="url(#linear-gradient-2)"/>
</svg>
