<svg xmlns="http://www.w3.org/2000/svg" xmlns:xlink="http://www.w3.org/1999/xlink" width="126.287" height="125.632" viewBox="0 0 126.287 125.632">
  <defs>
    <linearGradient id="linear-gradient" x1="0.5" x2="0.5" y2="1" gradientUnits="objectBoundingBox">
      <stop offset="0" stop-color="#3e7bfa"/>
      <stop offset="1" stop-color="#81a6f5"/>
    </linearGradient>
  </defs>
  <g id="imgLeaf6" transform="matrix(0.899, -0.438, 0.438, 0.899, -2.578, 48.545)">
    <path id="路径_60" data-name="路径 60" d="M5.245,65.172c9.076,4.394,20.269-.081,27.426-7.185S44.248,41.547,50.09,33.328C61.97,16.616,82.174,5.448,100.167,0,66.816.088,35.969,17.638,9.895,39.112,6.171,42.178,2.431,45.55.645,50.031S.9,63.071,5.245,65.172Z" transform="translate(10.573)" fill="url(#linear-gradient)"/>
    <path id="路径_61" data-name="路径 61" d="M57.089,10.609a.665.665,0,0,1,.054.935,3.96,3.96,0,0,0-.933,2.987A154.955,154.955,0,0,1,84.468.045a.662.662,0,0,1,.479,1.234A153.916,153.916,0,0,0,58.6,14.5a12.563,12.563,0,0,0,6.526,1.111.662.662,0,0,1,.134,1.317,13.894,13.894,0,0,1-7.959-1.6,151.13,151.13,0,0,0-12.471,8.951,20.7,20.7,0,0,0,12.794-.651.662.662,0,0,1,.475,1.236,22.017,22.017,0,0,1-14.524.425,153.345,153.345,0,0,0-12.56,11.46,33.45,33.45,0,0,0,18.466-.783.662.662,0,0,1,.424,1.254,34.779,34.779,0,0,1-19.891.645c-.022-.006-.037-.022-.057-.03-3.467,3.6-6.6,7.207-9.426,10.736a23.812,23.812,0,0,0,19.616-1.453.662.662,0,1,1,.641,1.159A25.149,25.149,0,0,1,19.666,49.67,151.381,151.381,0,0,0,1.263,79.5a.662.662,0,0,1-1.2-.553,150.52,150.52,0,0,1,23.75-36.438A16.258,16.258,0,0,1,24.186,32.2a.662.662,0,0,1,1.238.469,14.934,14.934,0,0,0-.557,8.661q3.58-3.989,7.431-7.733a15.952,15.952,0,0,1,.719-7.783.662.662,0,0,1,1.247.442,14.629,14.629,0,0,0-.775,6.2q3.379-3.213,6.947-6.228a10.646,10.646,0,0,1,2.288-7.072.662.662,0,1,1,1.034.827,9.319,9.319,0,0,0-1.982,5.133A157.034,157.034,0,0,1,55,15.311a5.247,5.247,0,0,1,1.151-4.649A.663.663,0,0,1,57.089,10.609Z" transform="translate(0 5.882)" fill="#fff"/>
  </g>
</svg>
