<svg xmlns="http://www.w3.org/2000/svg" xmlns:xlink="http://www.w3.org/1999/xlink" width="546.902" height="502.465" viewBox="0 0 546.902 502.465">
  <defs>
    <linearGradient id="linear-gradient" x1="0.222" y1="0.596" x2="1.043" y2="1.136" gradientUnits="objectBoundingBox">
      <stop offset="0" stop-color="#484c89"/>
      <stop offset="1" stop-color="#28293d"/>
    </linearGradient>
    <linearGradient id="linear-gradient-2" x1="0.222" y1="0.596" x2="1.043" y2="1.136" gradientUnits="objectBoundingBox">
      <stop offset="0" stop-color="#5c62ad"/>
      <stop offset="1" stop-color="#9499ff"/>
    </linearGradient>
  </defs>
  <g id="imgLeaf2" transform="matrix(0.966, -0.259, 0.259, 0.966, 0, 122.099)">
    <path id="路径_30" data-name="路径 30" d="M471.753,325.429c-45.606,34.633-113.6,36.155-160.714,3.6-16.367-11.311-30.856-26.486-49.987-31.951-28.242-8.066-57.165,7.138-85.716,14.033A154.093,154.093,0,0,1,74.961,301.072C43.9,286.591,15.252,262,0,231.308c40.275-24.211,95.7-19.914,131.76,10.216,9.144,7.642,17.26,16.833,27.935,22.134s25.267,5.439,32.928-3.689c5.5-6.554,5.915-16.369,2.615-24.264s-9.771-14.078-16.856-18.876c-23.7-16.046-55.226-18.876-76.54-37.978-14.571-13.061-22.414-32.315-25.306-51.667s.893-38.954,2.5-58.457C123.309,70.865,164.874,101.6,179.9,143.3c4.981,13.822,7.4,28.9,15.8,40.955s28.783,23.953,37.428,12.074c6.7-9.211,6.863-21.786,4.069-32.83s-8.175-21.253-11.834-32.043A106.891,106.891,0,0,1,281.982,0c33.1,29.865,43.25,85.692,21.21,124.445-7.3,12.825-17.547,24.207-21.9,38.307s.067,32.718,14.076,37.353c12.135,4.014,25.273-4.545,32.022-15.4s9.2-23.771,14.109-35.571A90.373,90.373,0,0,1,451.477,97.481c7.317,21.108,4.637,44.332-5.132,64.425a86.286,86.286,0,0,1-48.874,43.323c-13.979,4.822-28.923,5.925-43.433,8.788s-29.322,7.929-39.37,18.78-13.632,28.779-4.7,40.568c8.448,11.156,24.656,13.236,38.379,10.487s26.467-9.272,40.2-11.96C422.711,265.2,459.673,292.778,471.753,325.429Z" transform="translate(0 0)" fill="url(#linear-gradient)"/>
    <path id="路径_31" data-name="路径 31" d="M364.655,258.068A236.327,236.327,0,0,1,201.425,216.6q.366-4.792.745-9.547l1.86-23.519A311.342,311.342,0,0,0,363.139,79.515a2.942,2.942,0,0,0-4.58-3.7A305.426,305.426,0,0,1,204.526,177.266L218.29,3.173a2.943,2.943,0,1,0-5.868-.462L197.878,186.654A394.2,394.2,0,0,1,58,63.907a2.943,2.943,0,0,0-4.82,3.378,400.05,400.05,0,0,0,144.2,125.765L196.3,206.594q-.385,4.88-.763,9.8a2.876,2.876,0,0,0-.185,2.5c-.012.167-.024.336-.037.5C132.6,238.175,61.321,230.171,4.4,197.87a2.943,2.943,0,0,0-2.905,5.119c37.532,21.3,81.16,32.289,124.618,32.289a248.026,248.026,0,0,0,68.753-9.622c-1.29,18.64-2.071,37.587-.743,56.382,2.012,28.492,8.816,53.067,20.223,73.04a2.943,2.943,0,0,0,5.111-2.92c-10.965-19.2-17.513-42.93-19.464-70.533-1.363-19.313-.448-38.92.936-58.2a242.939,242.939,0,0,0,136.49,42.161,233.331,233.331,0,0,0,27.947-1.666,2.944,2.944,0,0,0-.706-5.846Z" transform="translate(56.106 52.257)" fill="url(#linear-gradient-2)"/>
  </g>
</svg>
