<svg xmlns="http://www.w3.org/2000/svg" xmlns:xlink="http://www.w3.org/1999/xlink" width="173.208" height="155.733" viewBox="0 0 173.208 155.733">
  <defs>
    <linearGradient id="linear-gradient" x1="0.5" x2="0.5" y2="1" gradientUnits="objectBoundingBox">
      <stop offset="0" stop-color="#3e7bfa"/>
      <stop offset="1" stop-color="#81a6f5"/>
    </linearGradient>
  </defs>
  <g id="imgLeaf4" transform="matrix(-0.259, -0.966, 0.966, -0.259, 32.568, 160.537)">
    <path id="路径_14" data-name="路径 14" d="M19.691,150.659C6.1,138.955,1.185,118.226,8.075,101.666c2.394-5.753,6.094-11.184,6.516-17.4.623-9.178-5.926-17.043-9.905-25.337A48.262,48.262,0,0,1,1.2,27.525C3.6,17.064,9.258,6.68,17.66,0c10.051,10.753,12.36,28.01,5.49,41.028-1.742,3.3-4.027,6.388-4.952,10s-.014,8.1,3.284,9.845a7.512,7.512,0,0,0,7.6-.786,13.976,13.976,0,0,0,4.679-6.4c3.365-8.309,2.169-18.151,6.626-25.929,3.047-5.318,8.432-8.979,14.17-11.131s11.991-2.275,18.069-3.058A36.276,36.276,0,0,1,56.387,49.347c-3.908,2.43-8.368,4.158-11.511,7.519s-5.454,10.383-1.25,12.254c3.26,1.451,7.122.678,10.323-.9s5.974-3.895,9.041-5.721a33.478,33.478,0,0,1,43.969,8.744C99.976,83.335,83.54,90.1,70.228,85.879c-4.406-1.4-8.563-3.791-13.166-4.2S47.044,83.84,46.541,88.434c-.436,3.98,3.045,7.444,6.812,8.8s7.883,1.263,11.819,2a28.305,28.305,0,0,1,23.016,30.306,26.488,26.488,0,0,1-20.069,2.643A27.025,27.025,0,0,1,51.65,120.043c-2.392-3.967-3.707-8.472-5.533-12.728s-4.347-8.464-8.328-10.831S28.082,94.19,25.055,97.7c-2.865,3.318-2.441,8.419-.7,12.442s4.572,7.5,6.294,11.532C34.93,131.7,28.9,144.823,19.691,150.659Z" transform="translate(18.873)" fill="url(#linear-gradient)"/>
    <path id="路径_15" data-name="路径 15" d="M39.855,115.487a74.019,74.019,0,0,1,2.023-52.71q1.491-.2,2.972-.4l7.326-.969a97.511,97.511,0,0,0,42.271,41.931.922.922,0,1,0,.833-1.645A95.668,95.668,0,0,1,54.13,61.153l54.227-7.173a.922.922,0,1,0-.242-1.828L50.82,59.731A123.454,123.454,0,0,1,79.268,8.855.922.922,0,1,0,77.918,7.6a125.285,125.285,0,0,0-29.09,52.4l-4.219.558q-1.52.2-3.053.407a.9.9,0,0,0-.779.108l-.156.021A78,78,0,0,1,34.727,1.2.922.922,0,0,0,32.969.644a79.582,79.582,0,0,0-1.738,40.284,77.664,77.664,0,0,0,7.445,20.43,126.893,126.893,0,0,0-17.319,3.461C12.762,67.3,5.679,70.991.307,75.791a.922.922,0,0,0,1.229,1.375c5.164-4.615,12-8.172,20.332-10.575a128.87,128.87,0,0,1,17.89-3.521,76.09,76.09,0,0,0-3.985,44.567,73.091,73.091,0,0,0,2.339,8.451.922.922,0,1,0,1.744-.6Z" transform="translate(0 18.564)" fill="#fff"/>
  </g>
</svg>
