<svg xmlns="http://www.w3.org/2000/svg" width="124.642" height="223.71" viewBox="0 0 124.642 223.71"><g transform="translate(0.776)"><line y1="8" x2="19" transform="translate(0 213.866)" fill="none" stroke="#007bff" stroke-width="4"/><line y1="11" x2="19" transform="translate(25 199.866)" fill="none" stroke="#007bff" stroke-width="4"/><line y1="10" x2="12" transform="translate(53 185.866)" fill="none" stroke="#007bff" stroke-width="4"/><line y1="18" x2="7" transform="translate(68 163.866)" fill="none" stroke="#007bff" stroke-width="4"/><line x1="14" y1="13" transform="translate(58 144.866)" fill="none" stroke="#007bff" stroke-width="4"/><line x1="16" y2="8" transform="translate(34 149.866)" fill="none" stroke="#007bff" stroke-width="4"/><line x1="5" y2="17" transform="translate(28 165.866)" fill="none" stroke="#007bff" stroke-width="4"/><line x2="21" y2="14" transform="translate(33 188.866)" fill="none" stroke="#007bff" stroke-width="4"/><line y1="20" x2="17" transform="translate(81 182.866)" fill="none" stroke="#007bff" stroke-width="4"/><line y1="27" x2="14" transform="translate(98 149.866)" fill="none" stroke="#007bff" stroke-width="4"/><line x1="12" y1="28" transform="translate(101 116.866)" fill="none" stroke="#007bff" stroke-width="4"/><line x1="6" y1="12" transform="translate(92 100.866)" fill="none" stroke="#007bff" stroke-width="4"/><line x1="8" y1="19" transform="translate(80 75.866)" fill="none" stroke="#007bff" stroke-width="4"/><line y1="13" x2="3" transform="translate(78 55.866)" fill="none" stroke="#007bff" stroke-width="4"/><line y1="16" x2="11" transform="translate(85 34.866)" fill="none" stroke="#007bff" stroke-width="4"/><g transform="matrix(0.839, 0.545, -0.545, 0.839, 100.384, 0)" fill="rgba(255,255,255,0)"><path d="M 23.14590072631836 26 L 4.854100227355957 26 C 4.350890159606934 26 4.091579914093018 25.6683292388916 4.0034499168396 25.52573013305664 C 3.915319919586182 25.38312911987305 3.734630107879639 25.00286865234375 3.959670066833496 24.55278968811035 L 13.10556983947754 6.260989189147949 C 13.35503005981445 5.762069225311279 13.81418037414551 5.708209037780762 14 5.708209037780762 C 14.18581962585449 5.708209037780762 14.64496994018555 5.762069225311279 14.89443016052246 6.260989189147949 L 24.04033088684082 24.55278968811035 C 24.2653694152832 25.00286865234375 24.08468055725098 25.38312911987305 23.99654960632324 25.52573013305664 C 23.90842056274414 25.6683292388916 23.64911079406738 26 23.14590072631836 26 Z" stroke="none"/><path d="M 14 8.944269180297852 L 6.472135543823242 24 L 21.52786445617676 24 L 14 8.944269180297852 M 14 3.70820426940918 C 15.06524753570557 3.70820426940918 16.13049507141113 4.260990142822266 16.68328094482422 5.366559982299805 L 25.82917976379395 23.65835952758789 C 26.82653045654297 25.6530590057373 25.37603950500488 28 23.14590072631836 28 L 4.854099273681641 28 C 2.62394905090332 28 1.173469543457031 25.6530590057373 2.170820236206055 23.65835952758789 L 11.31671905517578 5.366559982299805 C 11.86950492858887 4.260990142822266 12.93475246429443 3.70820426940918 14 3.70820426940918 Z" stroke="none" fill="#007bff"/></g><line x2="21" transform="translate(58 204.866)" fill="none" stroke="#007bff" stroke-width="4"/></g></svg>