<svg xmlns="http://www.w3.org/2000/svg" xmlns:xlink="http://www.w3.org/1999/xlink" width="22" height="21" viewBox="0 0 22 21">
  <defs>
    <linearGradient id="linear-gradient" x1="0.5" x2="0.5" y2="1" gradientUnits="objectBoundingBox">
      <stop offset="0" stop-color="#f1da7e"/>
      <stop offset="1" stop-color="#f9ca4a"/>
    </linearGradient>
  </defs>
  <g id="favourites-filled-star-symbol" transform="translate(0 -3.162)">
    <path id="路径_202" data-name="路径 202" d="M21.043,10.322l-6.058-.576a1.048,1.048,0,0,1-.868-.645l-2.17-5.285a1.037,1.037,0,0,0-1.927,0L7.867,9.1A1.026,1.026,0,0,1,7,9.746L.94,10.322a1.054,1.054,0,0,0-.59,1.831l4.566,4.029a1.046,1.046,0,0,1,.33,1.029L3.874,22.862a1.049,1.049,0,0,0,1.545,1.151l5.052-2.983a1.046,1.046,0,0,1,1.059,0l5.052,2.983a1.045,1.045,0,0,0,1.545-1.151l-1.354-5.651a1.046,1.046,0,0,1,.33-1.029l4.566-4.029A1.066,1.066,0,0,0,21.043,10.322Z" transform="translate(0)" fill="url(#linear-gradient)"/>
  </g>
</svg>
